{
  "asset": {
    "version": "2.0"
  },
  "buffers": [
    {
      "uri": "data:application/octet-stream;base64,",
      "byteLength": 34132
    }
  ],
  "bufferViews": [
    {
      "buffer": 0,
      "byteOffset": 0,
      "byteLength": 1984,
      "target": 34962
    },
    {
      "buffer": 0,
      "byteOffset": 1984,
      "byteLength": 4860,
      "target": 34962
    },
    {
      "buffer": 0,
      "byteOffset": 6844,
      "byteLength": 4860,
      "target": 34962
    },
    {
      "buffer": 0,
      "byteOffset": 11704,
      "byteLength": 6480,
      "target": 34962
    },
    {
      "buffer": 0,
      "byteOffset": 18184,
      "byteLength": 3240,
      "target": 34962
    },
    {
      "buffer": 0,
      "byteOffset": 21424,
      "byteLength": 3240,
      "target": 34962
    },
    {
      "buffer": 0,
      "byteOffset": 24664,
      "byteLength": 6480,
      "target": 34962
    },
    {
      "buffer": 0,
      "byteOffset": 31144,
      "byteLength": 2988,
      "target": 34963
    }
  ],
  "accessors": [
    {
      "bufferView": 0,
      "componentType": 5126,
      "count": 31,
      "type": "MAT4"
    },
    {
      "bufferView": 1,
      "componentType": 5126,
      "count": 405,
      "type": "VEC3",
      "min": [
        -1.16239,
        -1.0216,
        0.0
      ],
      "max": [
        1.3181,
        1.02692,
        3.04929
      ]
    },
    {
      "bufferView": 2,
      "componentType": 5126,
      "count": 405,
      "type": "VEC3"
    },
    {
      "bufferView": 3,
      "componentType": 5126,
      "count": 405,
      "type": "VEC4"
    },
    {
      "bufferView": 4,
      "componentType": 5126,
      "count": 405,
      "type": "VEC2"
    },
    {
      "bufferView": 5,
      "componentType": 5123,
      "count": 405,
      "type": "VEC4"
    },
    {
      "bufferView": 6,
      "componentType": 5126,
      "count": 405,
      "type": "VEC4"
    },
    {
      "bufferView": 7,
      "componentType": 5123,
      "count": 1494,
      "type": "SCALAR"
    }
  ],
  "meshes": [
    {
      "name": "Mesh_native_warrior_mesh",
      "primitives": [
        {
          "attributes": {
            "POSITION": 1,
            "NORMAL": 2,
            "COLOR_0": 3,
            "TEXCOORD_0": 4,
            "JOINTS_0": 5,
            "WEIGHTS_0": 6
          },
          "indices": 7
        }
      ]
    }
  ],
  "nodes": [
    {
      "name": "Bip01",
      "children": [
        1
      ],
      "mesh": 0,
      "skin": 0,
      "rotation": [
        -0.70710678,
        0.0,
        0.0,
        0.70710678
      ]
    },
    {
      "name": "Bip01 Pelvis",
      "matrix": [
        -1.3868000223737909e-06,
        0.0,
        1.0,
        0.0,
        2.7577100354392314e-06,
        -1.0,
        0.0,
        0.0,
        1.0,
        2.7577100354392314e-06,
        1.3868000223737909e-06,
        0.0,
        0.0,
        0.03262700140476227,
        0.726993978023529,
        1.0
      ],
      "children": [
        2
      ]
    },
    {
      "name": "Bip01 Spine",
      "matrix": [
        0.965719997882843,
        0.25958800315856934,
        9.79263063527469e-07,
        0.0,
        -0.25958800315856934,
        0.965719997882843,
        -4.472862201509997e-06,
        0.0,
        -2.106793090206338e-06,
        4.0653198993823025e-06,
        1.0,
        0.0,
        0.1653430461883545,
        -0.05675099790096283,
        3.858004902212997e-07,
        1.0
      ],
      "children": [
        3,
        4,
        5,
        8
      ]
    },
    {
      "name": "Bip01 Tail",
      "matrix": [
        -0.9528929591178894,
        0.3033044636249542,
        7.788044058543164e-07,
        0.0,
        0.3033044636249542,
        0.9528929591178894,
        5.805551609228132e-06,
        0.0,
        9.423312121725758e-07,
        5.792602223664289e-06,
        -1.0,
        0.0,
        -0.15323549509048462,
        0.18189379572868347,
        3.1822170853956777e-07,
        1.0
      ]
    },
    {
      "name": "Bip01 L Thigh",
      "matrix": [
        -0.9686493277549744,
        0.24716854095458984,
        0.025001801550388336,
        0.0,
        0.24720557034015656,
        0.9689613580703735,
        -0.0016513733426108956,
        0.0,
        -0.024633904919028282,
        0.0045809694565832615,
        -0.9996860027313232,
        0.0,
        -0.14494305849075317,
        0.09772610664367676,
        0.16464819014072418,
        1.0
      ],
      "children": [
        6
      ]
    },
    {
      "name": "Bip01 Spine1",
      "matrix": [
        0.9848071932792664,
        -0.1736481934785843,
        -4.816313889932644e-07,
        0.0,
        0.1736481934785843,
        0.9848071932792664,
        -4.214125581825101e-08,
        0.0,
        4.816328669221548e-07,
        -4.213024951127409e-08,
        1.0,
        0.0,
        0.1365358829498291,
        -0.00010603666305541992,
        -4.874289061262971e-08,
        1.0
      ],
      "children": [
        11
      ]
    },
    {
      "name": "Bip01 L Calf",
      "matrix": [
        0.9967308640480042,
        -0.08079860359430313,
        3.378699542366803e-09,
        0.0,
        0.0807986855506897,
        0.9967302680015564,
        -2.621149963744074e-10,
        0.0,
        5.087983367957349e-10,
        -8.109368732078792e-11,
        1.0,
        0.0,
        0.29766926169395447,
        0.0,
        5.960464477539063e-08,
        1.0
      ],
      "children": [
        7
      ]
    },
    {
      "name": "Bip01 L Foot",
      "matrix": [
        0.9953032732009888,
        0.09352431446313858,
        0.02497793920338154,
        0.0,
        -0.09350427240133286,
        0.9956168532371521,
        -0.0019734075758606195,
        0.0,
        -0.025052974000573158,
        -0.000371396861737594,
        0.9996861219406128,
        0.0,
        0.24059785902500153,
        -6.705522537231445e-08,
        -3.2782554626464844e-07,
        1.0
      ],
      "children": [
        28
      ]
    },
    {
      "name": "Bip01 R Thigh",
      "matrix": [
        -0.9686492681503296,
        0.24716871976852417,
        -0.025000397115945816,
        0.0,
        0.24720557034015656,
        0.9689613580703735,
        0.0016569166909903288,
        0.0,
        0.024633949622511864,
        -0.004575260449200869,
        -0.9996860027313232,
        0.0,
        -0.14494305849075317,
        0.09772706031799316,
        -0.16464780271053314,
        1.0
      ],
      "children": [
        9
      ]
    },
    {
      "name": "Bip01 R Calf",
      "matrix": [
        0.9967308640480042,
        -0.08079870045185089,
        6.163894283872651e-08,
        0.0,
        0.0807986855506897,
        0.9967302083969116,
        -2.0745958284607013e-09,
        0.0,
        -5.087983367957349e-10,
        5.137239245112113e-11,
        1.0,
        0.0,
        0.29766926169395447,
        -2.60770320892334e-08,
        -5.960464477539063e-08,
        1.0
      ],
      "children": [
        10
      ]
    },
    {
      "name": "Bip01 R Foot",
      "matrix": [
        0.9953032732009888,
        0.09352438896894455,
        -0.024977965280413628,
        0.0,
        -0.09350427240133286,
        0.9956168532371521,
        0.001973584061488509,
        0.0,
        0.025052988901734352,
        0.00037123021320439875,
        0.9996861219406128,
        0.0,
        0.24059785902500153,
        -6.705522537231445e-08,
        2.682209014892578e-07,
        1.0
      ],
      "children": [
        29
      ]
    },
    {
      "name": "Bip01 Spine2",
      "matrix": [
        0.9848079681396484,
        -0.1736483871936798,
        -3.632359550920228e-07,
        1.0766695349553515e-16,
        0.17364837229251862,
        0.9848080277442932,
        -4.213713822309728e-08,
        1.8984605695092287e-17,
        4.816300247512117e-07,
        -4.21419947826962e-08,
        1.0,
        5.265557874384507e-23,
        0.13653934001922607,
        -0.00011168420314788818,
        -1.6619651432847604e-08,
        1.0
      ],
      "children": [
        12
      ]
    },
    {
      "name": "Bip01 Neck",
      "matrix": [
        0.9117799997329712,
        0.41067835688591003,
        1.0311092637493857e-06,
        0.0,
        -0.41067835688591003,
        0.9117799997329712,
        -1.9605782597409416e-07,
        0.0,
        -1.1390576446501655e-06,
        -2.446865892125061e-07,
        1.0,
        0.0,
        0.14250397682189941,
        -0.00013484060764312744,
        -1.8982149185831076e-10,
        1.0
      ],
      "children": [
        13,
        15,
        27
      ]
    },
    {
      "name": "Bip01 L Clavicle",
      "matrix": [
        1.2584661090997429e-09,
        -2.770006631180877e-06,
        1.0,
        0.0,
        -0.411404550075531,
        -0.9114533066749573,
        -2.5280044155806536e-06,
        0.0,
        0.9114533066749573,
        -0.411404550075531,
        -1.0215879910902004e-06,
        0.0,
        -7.152557373046875e-07,
        0.00014886260032653809,
        0.01942799985408783,
        1.0
      ],
      "children": [
        14
      ]
    },
    {
      "name": "Bip01 L UpperArm",
      "matrix": [
        0.9996780157089233,
        0.009309445507824421,
        -0.023600924760103226,
        0.0,
        0.02278261072933674,
        0.07990716397762299,
        0.9965412616729736,
        0.0,
        0.011163139715790749,
        -0.9967584013938904,
        0.07966937869787216,
        0.0,
        0.19846299290657043,
        3.725290298461914e-08,
        1.1920928955078125e-07,
        1.0
      ],
      "children": [
        19
      ]
    },
    {
      "name": "Bip01 R Clavicle",
      "matrix": [
        1.2591734321887316e-09,
        2.7771986879088217e-06,
        -1.0,
        0.0,
        -0.411404550075531,
        -0.9114533066749573,
        -2.5280044155806536e-06,
        0.0,
        -0.9114533066749573,
        0.411404550075531,
        1.184783059215988e-06,
        0.0,
        -7.152557373046875e-07,
        0.00014892220497131348,
        -0.01942799985408783,
        1.0
      ],
      "children": [
        16
      ]
    },
    {
      "name": "Bip01 R UpperArm",
      "matrix": [
        0.9997239708900452,
        -0.003417310072109103,
        0.023228824138641357,
        0.0,
        -0.023270320147275925,
        -0.012658297084271908,
        0.9996488690376282,
        0.0,
        -0.003121996531262994,
        -0.9999135136604309,
        -0.012734392657876015,
        0.0,
        0.19846299290657043,
        -1.862645149230957e-08,
        -1.1920928955078125e-07,
        1.0
      ],
      "children": [
        17
      ]
    },
    {
      "name": "Bip01 R Forearm",
      "matrix": [
        0.9954967498779297,
        -0.0948001965880394,
        -3.2076323819296704e-09,
        0.0,
        0.09480025619268417,
        0.9954958558082581,
        3.8362159671123663e-08,
        0.0,
        -2.750714100940854e-10,
        1.0326703936414106e-09,
        1.0,
        0.0,
        0.3427416682243347,
        9.5367431640625e-07,
        -5.21540641784668e-08,
        1.0
      ],
      "children": [
        18
      ]
    },
    {
      "name": "Bip01 R Hand",
      "matrix": [
        0.9975926280021667,
        0.04539802297949791,
        0.0524136982858181,
        0.0,
        0.040104739367961884,
        -0.9943819046020508,
        0.0979677364230156,
        0.0,
        0.05656677484512329,
        -0.09562993794679642,
        -0.9938089847564697,
        0.0,
        0.2616725564002991,
        5.7220458984375e-06,
        -6.183981895446777e-07,
        1.0
      ],
      "children": [
        25,
        26
      ]
    },
    {
      "name": "Bip01 L Forearm",
      "matrix": [
        0.9998971223831177,
        -0.01431914884597063,
        1.2324012921283156e-09,
        0.0,
        0.01431913860142231,
        0.9998977780342102,
        3.4034152918138716e-07,
        0.0,
        -1.4337953047061092e-10,
        -5.025523108770358e-09,
        1.0,
        0.0,
        0.3427414894104004,
        -3.5762786865234375e-06,
        -5.513429641723633e-07,
        1.0
      ],
      "children": [
        20
      ]
    },
    {
      "name": "Bip01 L Hand",
      "matrix": [
        0.9961953163146973,
        0.08583149313926697,
        0.01513540931046009,
        0.0,
        0.08711717277765274,
        -0.9857914447784424,
        -0.1436166763305664,
        0.0,
        0.002593487501144409,
        0.14438915252685547,
        -0.9895178079605103,
        0.0,
        0.2332499623298645,
        5.125999450683594e-06,
        8.046627044677734e-07,
        1.0
      ],
      "children": [
        21,
        23
      ]
    },
    {
      "name": "Bip01 L Finger1",
      "matrix": [
        0.9835837483406067,
        0.13059385120868683,
        -0.1245342269539833,
        0.0,
        -0.11625900119543076,
        0.9864014983177185,
        0.11616766452789307,
        0.0,
        0.13801062107086182,
        -0.09978238493204117,
        0.9853915572166443,
        0.0,
        0.27683520317077637,
        -5.960464477539062e-07,
        -1.30385160446167e-08,
        1.0
      ],
      "children": [
        22
      ]
    },
    {
      "name": "Bip01 L Finger11",
      "matrix": [
        0.7332578301429749,
        0.6799507141113281,
        5.2389829363619356e-08,
        0.0,
        -0.6799499988555908,
        0.733258068561554,
        3.03542350366115e-07,
        0.0,
        5.379729994814397e-09,
        -2.2972623803241277e-09,
        0.9999999403953552,
        0.0,
        0.10743379592895508,
        5.245208740234375e-06,
        -1.1324882507324219e-06,
        1.0
      ]
    },
    {
      "name": "Bip01 L Finger0",
      "matrix": [
        0.27581527829170227,
        0.18673820793628693,
        -0.9428964853286743,
        0.0,
        0.4092140197753906,
        0.8647996187210083,
        0.2909736633300781,
        0.0,
        0.8697525858879089,
        -0.46610119938850403,
        0.16210898756980896,
        0.0,
        0.1061239242553711,
        0.012216448783874512,
        -0.15139779448509216,
        1.0
      ],
      "children": [
        24
      ]
    },
    {
      "name": "Bip01 L Finger01",
      "matrix": [
        0.9055167436599731,
        0.4243111312389374,
        -2.9203948770373245e-07,
        0.0,
        -0.42431092262268066,
        0.9055166840553284,
        -5.115537646815937e-07,
        0.0,
        -1.7446524225306348e-08,
        -1.2803162974250881e-08,
        1.0,
        0.0,
        0.13480456173419952,
        4.589557647705078e-06,
        -2.5033950805664062e-06,
        1.0
      ]
    },
    {
      "name": "Bip01 Prop3",
      "matrix": [
        -0.09308533370494843,
        0.9955127835273743,
        0.016987934708595276,
        0.0,
        0.9947779774665833,
        0.0922720655798912,
        0.04361860081553459,
        0.0,
        0.04185532033443451,
        0.020959464833140373,
        -0.9989033937454224,
        0.0,
        0.12309205532073975,
        0.013349294662475586,
        0.9829992651939392,
        1.0
      ]
    },
    {
      "name": "Bip01 Prop1",
      "matrix": [
        -0.000766911543905735,
        0.9998447299003601,
        0.017562905326485634,
        0.0,
        0.9993912577629089,
        0.0001534694602014497,
        0.034901201725006104,
        0.0,
        0.034893084317445755,
        0.017578978091478348,
        -0.999235987663269,
        0.0,
        0.12309205532073975,
        0.013349294662475586,
        0.9829992651939392,
        1.0
      ]
    },
    {
      "name": "Bip01 Head",
      "matrix": [
        0.9438406229019165,
        -0.33040130138397217,
        -9.163988465843431e-07,
        0.0,
        0.33040130138397217,
        0.9438406229019165,
        -1.5576254952520685e-07,
        0.0,
        9.163971412817773e-07,
        -1.5576517853332916e-07,
        1.0,
        0.0,
        0.18666338920593262,
        1.2814998626708984e-06,
        -8.454685485048685e-08,
        1.0
      ],
      "children": [
        30
      ]
    },
    {
      "name": "Bip01 L Toe0",
      "matrix": [
        0.0,
        1.0,
        0.0,
        0.0,
        -1.0,
        0.0,
        0.0,
        0.0,
        0.0,
        0.0,
        1.0,
        0.0,
        0.18724285066127777,
        0.15070399641990662,
        1.9371509552001953e-07,
        1.0
      ]
    },
    {
      "name": "Bip01 R Toe0",
      "matrix": [
        0.0,
        1.0,
        0.0,
        0.0,
        -1.0,
        0.0,
        0.0,
        0.0,
        0.0,
        0.0,
        1.0,
        0.0,
        0.18724285066127777,
        0.15070399641990662,
        1.9371509552001953e-07,
        1.0
      ]
    },
    {
      "name": "Bip01 Ponytail1",
      "matrix": [
        0.9755092859268188,
        -0.21916866302490234,
        -0.018613208085298538,
        0.0,
        0.017894107848405838,
        -0.005265728570520878,
        0.9998260140419006,
        0.0,
        -0.21922868490219116,
        -0.9756733179092407,
        -0.0012149385875090957,
        0.0,
        0.5410997867584229,
        0.22084344923496246,
        -0.00039501022547483444,
        1.0
      ]
    }
  ],
  "skins": [
    {
      "joints": [
        0,
        1,
        2,
        3,
        4,
        5,
        6,
        7,
        8,
        9,
        10,
        11,
        12,
        13,
        14,
        15,
        16,
        17,
        18,
        19,
        20,
        21,
        22,
        23,
        24,
        25,
        26,
        27,
        28,
        29,
        30
      ],
      "inverseBindMatrices": 0,
      "skeleton": 0
    }
  ],
  "scenes": [
    {
      "nodes": [
        0
      ]
    }
  ]
}